<svg width="138" height="475" viewBox="0 0 138 475" fill="none" xmlns="http://www.w3.org/2000/svg">
<g clip-path="url(#clip0_11518_3287)">
<path d="M27.6 27.3569C27.2 27.3569 27 27.2569 26.6 27.0569L20 23.3569V30.3569C20 30.9569 20.4 31.3569 20.9 31.3569H34.1C34.7 31.3569 35 30.9569 35 30.3569V23.3569L28.5 27.0569C28.1 27.2569 27.9 27.3569 27.6 27.3569ZM34.1 19.3569H20.9C20.4 19.3569 20 19.8569 20 20.3569V21.1569L27.5 25.3569L35 21.1569V20.3569C35 19.8569 34.6 19.3569 34.1 19.3569Z" fill="black"/>
</g>
<g clip-path="url(#clip1_11518_3287)">
<path d="M28 50.3569H26V52.3569H28V50.3569Z" fill="black"/>
<path d="M28 54.3569H26V62.3569H28V54.3569Z" fill="black"/>
</g>
<g clip-path="url(#clip2_11518_3287)">
<path d="M21 93.3569H34C33.8 90.7569 31.9 88.5569 29.3 87.8569C30.3 87.2569 31 86.1569 31 84.8569C31 82.9569 29.4 81.3569 27.5 81.3569C25.6 81.3569 24 82.9569 24 84.8569C24 86.1569 24.7 87.2569 25.7 87.8569C23.1 88.5569 21.2 90.7569 21 93.3569Z" fill="black"/>
</g>
<g clip-path="url(#clip3_11518_3287)">
<path d="M35 119.357H28V112.357H26V119.357H19V121.357H26V128.357H28V121.357H35V119.357Z" fill="black"/>
</g>
<path d="M35 154.357H19V156.357H35V154.357Z" fill="black"/>
<g clip-path="url(#clip4_11518_3287)">
<path d="M34.7 196.657L31.6 193.557C32.5 192.357 33 190.957 33 189.357C33 185.457 29.9 182.357 26 182.357C22.1 182.357 19 185.457 19 189.357C19 193.257 22.1 196.357 26 196.357C27.6 196.357 29 195.857 30.2 194.957L33.3 198.057C33.5 198.257 33.7 198.357 34 198.357C34.6 198.357 35 197.957 35 197.357C35 197.157 34.9 196.857 34.7 196.657ZM21 189.357C21 186.557 23.2 184.357 26 184.357C28.8 184.357 31 186.557 31 189.357C31 192.157 28.8 194.357 26 194.357C23.2 194.357 21 192.157 21 189.357Z" fill="black"/>
</g>
<g clip-path="url(#clip5_11518_3287)">
<path d="M34.3 222.357L30.8 222.557L27.6 217.657C27.5 217.457 27.2 217.357 27 217.357C26.8 217.357 26.5 217.457 26.4 217.657L23.2 222.557H19.7C19.3 222.557 19 222.857 19 223.257C19 223.357 19 223.357 19 223.457L20.9 230.257C21.1 230.957 21.6 231.357 22.3 231.357H31.7C32.4 231.357 32.9 230.957 33.1 230.257L35 223.357C35 223.257 35 223.257 35 223.157C35 222.757 34.7 222.357 34.3 222.357ZM27 219.257L29.2 222.457H24.9L27 219.257Z" fill="black"/>
</g>
<g clip-path="url(#clip6_11518_3287)">
<path d="M28 250.357H26V262.357H28V250.357Z" fill="black"/>
<path d="M24 254.357H22V262.357H24V254.357Z" fill="black"/>
<path d="M32 253.357H30V262.357H32V253.357Z" fill="black"/>
</g>
<g clip-path="url(#clip7_11518_3287)">
<path d="M33 282.357L32 281.357L27.5 285.857L23 281.357L22 282.357L26.5 286.857L22 291.357L23 292.357L27.5 287.857L32 292.357L33 291.357L28.5 286.857L33 282.357Z" fill="black"/>
</g>
<path d="M28.1 318.182L32.8 313.682C33.1 313.382 33.1 312.882 32.8 312.582C32.5 312.282 32 312.282 31.7 312.582L27.5 316.582L23.3 312.582C23 312.282 22.5 312.282 22.2 312.582C22.1 312.782 22 312.982 22 313.182C22 313.382 22.1 313.582 22.2 313.682L26.9 318.182C27.3 318.482 27.7 318.482 28.1 318.182Z" fill="black"/>
<g clip-path="url(#clip8_11518_3287)">
<path d="M27.4998 348.357L22.4998 338.357H32.4998" fill="black"/>
</g>
<g opacity="0.6" clip-path="url(#clip9_11518_3287)">
<path d="M65.6 27.3569C65.2 27.3569 65 27.2569 64.6 27.0569L58 23.3569V30.3569C58 30.9569 58.4 31.3569 58.9 31.3569H72.1C72.7 31.3569 73 30.9569 73 30.3569V23.3569L66.5 27.0569C66.1 27.2569 65.9 27.3569 65.6 27.3569ZM72.1 19.3569H58.9C58.4 19.3569 58 19.8569 58 20.3569V21.1569L65.5 25.3569L73 21.1569V20.3569C73 19.8569 72.6 19.3569 72.1 19.3569Z" fill="black"/>
</g>
<g opacity="0.3" clip-path="url(#clip10_11518_3287)">
<path d="M103.6 27.3569C103.2 27.3569 103 27.2569 102.6 27.0569L96 23.3569V30.3569C96 30.9569 96.4 31.3569 96.9 31.3569H110.1C110.7 31.3569 111 30.9569 111 30.3569V23.3569L104.5 27.0569C104.1 27.2569 103.9 27.3569 103.6 27.3569ZM110.1 19.3569H96.9C96.4 19.3569 96 19.8569 96 20.3569V21.1569L103.5 25.3569L111 21.1569V20.3569C111 19.8569 110.6 19.3569 110.1 19.3569Z" fill="black"/>
</g>
<g opacity="0.6" clip-path="url(#clip11_11518_3287)">
<path d="M66 50.3569H64V52.3569H66V50.3569Z" fill="black"/>
<path d="M66 54.3569H64V62.3569H66V54.3569Z" fill="black"/>
</g>
<g opacity="0.3" clip-path="url(#clip12_11518_3287)">
<path d="M104 50.3569H102V52.3569H104V50.3569Z" fill="black"/>
<path d="M104 54.3569H102V62.3569H104V54.3569Z" fill="black"/>
</g>
<g opacity="0.6" clip-path="url(#clip13_11518_3287)">
<path d="M59 93.3569H72C71.8 90.7569 69.9 88.5569 67.3 87.8569C68.3 87.2569 69 86.1569 69 84.8569C69 82.9569 67.4 81.3569 65.5 81.3569C63.6 81.3569 62 82.9569 62 84.8569C62 86.1569 62.7 87.2569 63.7 87.8569C61.1 88.5569 59.2 90.7569 59 93.3569Z" fill="black"/>
</g>
<g opacity="0.3" clip-path="url(#clip14_11518_3287)">
<path d="M97 93.3569H110C109.8 90.7569 107.9 88.5569 105.3 87.8569C106.3 87.2569 107 86.1569 107 84.8569C107 82.9569 105.4 81.3569 103.5 81.3569C101.6 81.3569 100 82.9569 100 84.8569C100 86.1569 100.7 87.2569 101.7 87.8569C99.1 88.5569 97.2 90.7569 97 93.3569Z" fill="black"/>
</g>
<g opacity="0.6" clip-path="url(#clip15_11518_3287)">
<path d="M73 119.357H66V112.357H64V119.357H57V121.357H64V128.357H66V121.357H73V119.357Z" fill="black"/>
</g>
<g opacity="0.3" clip-path="url(#clip16_11518_3287)">
<path d="M111 119.357H104V112.357H102V119.357H95V121.357H102V128.357H104V121.357H111V119.357Z" fill="black"/>
</g>
<g opacity="0.6">
<path d="M73 154.357H57V156.357H73V154.357Z" fill="black"/>
</g>
<g opacity="0.3">
<path d="M111 154.357H95V156.357H111V154.357Z" fill="black"/>
</g>
<g opacity="0.6" clip-path="url(#clip17_11518_3287)">
<path d="M72.7 196.657L69.6 193.557C70.5 192.357 71 190.957 71 189.357C71 185.457 67.9 182.357 64 182.357C60.1 182.357 57 185.457 57 189.357C57 193.257 60.1 196.357 64 196.357C65.6 196.357 67 195.857 68.2 194.957L71.3 198.057C71.5 198.257 71.7 198.357 72 198.357C72.6 198.357 73 197.957 73 197.357C73 197.157 72.9 196.857 72.7 196.657ZM59 189.357C59 186.557 61.2 184.357 64 184.357C66.8 184.357 69 186.557 69 189.357C69 192.157 66.8 194.357 64 194.357C61.2 194.357 59 192.157 59 189.357Z" fill="black"/>
</g>
<g opacity="0.3" clip-path="url(#clip18_11518_3287)">
<path d="M110.7 196.657L107.6 193.557C108.5 192.357 109 190.957 109 189.357C109 185.457 105.9 182.357 102 182.357C98.1 182.357 95 185.457 95 189.357C95 193.257 98.1 196.357 102 196.357C103.6 196.357 105 195.857 106.2 194.957L109.3 198.057C109.5 198.257 109.7 198.357 110 198.357C110.6 198.357 111 197.957 111 197.357C111 197.157 110.9 196.857 110.7 196.657ZM97 189.357C97 186.557 99.2 184.357 102 184.357C104.8 184.357 107 186.557 107 189.357C107 192.157 104.8 194.357 102 194.357C99.2 194.357 97 192.157 97 189.357Z" fill="black"/>
</g>
<g opacity="0.6" clip-path="url(#clip19_11518_3287)">
<path d="M72.3 222.357L68.8 222.557L65.6 217.657C65.5 217.457 65.2 217.357 65 217.357C64.8 217.357 64.5 217.457 64.4 217.657L61.2 222.557H57.7C57.3 222.557 57 222.857 57 223.257C57 223.357 57 223.357 57 223.457L58.9 230.257C59.1 230.957 59.6 231.357 60.3 231.357H69.7C70.4 231.357 70.9 230.957 71.1 230.257L73 223.357C73 223.257 73 223.257 73 223.157C73 222.757 72.7 222.357 72.3 222.357ZM65 219.257L67.2 222.457H62.9L65 219.257Z" fill="black"/>
</g>
<g opacity="0.3" clip-path="url(#clip20_11518_3287)">
<path d="M110.3 222.357L106.8 222.557L103.6 217.657C103.5 217.457 103.2 217.357 103 217.357C102.8 217.357 102.5 217.457 102.4 217.657L99.2 222.557H95.7C95.3 222.557 95 222.857 95 223.257C95 223.357 95 223.357 95 223.457L96.9 230.257C97.1 230.957 97.6 231.357 98.3 231.357H107.7C108.4 231.357 108.9 230.957 109.1 230.257L111 223.357C111 223.257 111 223.257 111 223.157C111 222.757 110.7 222.357 110.3 222.357ZM103 219.257L105.2 222.457H100.9L103 219.257Z" fill="black"/>
</g>
<g opacity="0.6" clip-path="url(#clip21_11518_3287)">
<path d="M66 250.357H64V262.357H66V250.357Z" fill="black"/>
<path d="M62 254.357H60V262.357H62V254.357Z" fill="black"/>
<path d="M70 253.357H68V262.357H70V253.357Z" fill="black"/>
</g>
<g opacity="0.3" clip-path="url(#clip22_11518_3287)">
<path d="M104 250.357H102V262.357H104V250.357Z" fill="black"/>
<path d="M100 254.357H98V262.357H100V254.357Z" fill="black"/>
<path d="M108 253.357H106V262.357H108V253.357Z" fill="black"/>
</g>
<g opacity="0.6" clip-path="url(#clip23_11518_3287)">
<path d="M71 282.357L70 281.357L65.5 285.857L61 281.357L60 282.357L64.5 286.857L60 291.357L61 292.357L65.5 287.857L70 292.357L71 291.357L66.5 286.857L71 282.357Z" fill="black"/>
</g>
<g opacity="0.3" clip-path="url(#clip24_11518_3287)">
<path d="M109 282.357L108 281.357L103.5 285.857L99 281.357L98 282.357L102.5 286.857L98 291.357L99 292.357L103.5 287.857L108 292.357L109 291.357L104.5 286.857L109 282.357Z" fill="black"/>
</g>
<g opacity="0.6">
<path d="M66.1 318.182L70.8 313.682C71.1 313.382 71.1 312.882 70.8 312.582C70.5 312.282 70 312.282 69.7 312.582L65.5 316.582L61.3 312.582C61 312.282 60.5 312.282 60.2 312.582C60.1 312.782 60 312.982 60 313.182C60 313.382 60.1 313.582 60.2 313.682L64.9 318.182C65.3 318.482 65.7 318.482 66.1 318.182Z" fill="black"/>
</g>
<g opacity="0.3">
<path d="M104.1 318.182L108.8 313.682C109.1 313.382 109.1 312.882 108.8 312.582C108.5 312.282 108 312.282 107.7 312.582L103.5 316.582L99.3 312.582C99 312.282 98.5 312.282 98.2 312.582C98.1 312.782 98 312.982 98 313.182C98 313.382 98.1 313.582 98.2 313.682L102.9 318.182C103.3 318.482 103.7 318.482 104.1 318.182Z" fill="black"/>
</g>
<g opacity="0.6" clip-path="url(#clip25_11518_3287)">
<path d="M65.4998 348.357L60.4998 338.357H70.4998" fill="black"/>
</g>
<g opacity="0.3" clip-path="url(#clip26_11518_3287)">
<path d="M103.5 348.357L98.4998 338.357H108.5" fill="black"/>
</g>
<g clip-path="url(#clip27_11518_3287)">
<path d="M27.5002 362.357L32.5002 372.357H22.5002" fill="black"/>
</g>
<g opacity="0.6" clip-path="url(#clip28_11518_3287)">
<path d="M65.5002 362.357L70.5002 372.357H60.5002" fill="black"/>
</g>
<g opacity="0.3" clip-path="url(#clip29_11518_3287)">
<path d="M103.5 362.357L108.5 372.357H98.5002" fill="black"/>
</g>
<g clip-path="url(#clip30_11518_3287)">
<g clip-path="url(#clip31_11518_3287)">
<path d="M30 401.357C31.1046 401.357 32 400.462 32 399.357C32 398.252 31.1046 397.357 30 397.357C28.8954 397.357 28 398.252 28 399.357C28 400.462 28.8954 401.357 30 401.357Z" fill="black"/>
<path d="M36.7 392.657C35.8 391.757 34.7 391.357 33.3 391.357H26.7C23.9 391.357 22 393.257 22 396.057V402.657C22 404.057 22.4 405.257 23.4 406.057C24.3 406.957 25.4 407.357 26.7 407.357H33.3C34.7 407.357 35.9 406.957 36.7 406.057C37.5 405.157 38 404.057 38 402.657V396.057C38 394.657 37.6 393.457 36.7 392.657ZM30 403.457C27.8 403.457 25.9 401.657 25.9 399.357C25.9 397.057 27.8 395.257 30 395.257C32.2 395.257 34.1 397.057 34.1 399.357C34.1 401.657 32.2 403.457 30 403.457ZM34.6 396.057C33.9 396.057 33.3 395.557 33.3 394.757C33.3 393.957 33.8 393.457 34.6 393.457C35.3 393.457 35.9 394.057 35.9 394.757C35.9 395.457 35.3 396.057 34.6 396.057Z" fill="black"/>
</g>
</g>
<g opacity="0.6" clip-path="url(#clip32_11518_3287)">
<g clip-path="url(#clip33_11518_3287)">
<path d="M68 401.357C69.1046 401.357 70 400.462 70 399.357C70 398.252 69.1046 397.357 68 397.357C66.8954 397.357 66 398.252 66 399.357C66 400.462 66.8954 401.357 68 401.357Z" fill="black"/>
<path d="M74.7 392.657C73.8 391.757 72.7 391.357 71.3 391.357H64.7C61.9 391.357 60 393.257 60 396.057V402.657C60 404.057 60.4 405.257 61.4 406.057C62.3 406.957 63.4 407.357 64.7 407.357H71.3C72.7 407.357 73.9 406.957 74.7 406.057C75.5 405.157 76 404.057 76 402.657V396.057C76 394.657 75.6 393.457 74.7 392.657ZM68 403.457C65.8 403.457 63.9 401.657 63.9 399.357C63.9 397.057 65.8 395.257 68 395.257C70.2 395.257 72.1 397.057 72.1 399.357C72.1 401.657 70.2 403.457 68 403.457ZM72.6 396.057C71.9 396.057 71.3 395.557 71.3 394.757C71.3 393.957 71.8 393.457 72.6 393.457C73.3 393.457 73.9 394.057 73.9 394.757C73.9 395.457 73.3 396.057 72.6 396.057Z" fill="black"/>
</g>
</g>
<g opacity="0.3" clip-path="url(#clip34_11518_3287)">
<g clip-path="url(#clip35_11518_3287)">
<path d="M106 401.357C107.105 401.357 108 400.462 108 399.357C108 398.252 107.105 397.357 106 397.357C104.895 397.357 104 398.252 104 399.357C104 400.462 104.895 401.357 106 401.357Z" fill="black"/>
<path d="M112.7 392.657C111.8 391.757 110.7 391.357 109.3 391.357H102.7C99.9 391.357 98 393.257 98 396.057V402.657C98 404.057 98.4 405.257 99.4 406.057C100.3 406.957 101.4 407.357 102.7 407.357H109.3C110.7 407.357 111.9 406.957 112.7 406.057C113.5 405.157 114 404.057 114 402.657V396.057C114 394.657 113.6 393.457 112.7 392.657ZM106 403.457C103.8 403.457 101.9 401.657 101.9 399.357C101.9 397.057 103.8 395.257 106 395.257C108.2 395.257 110.1 397.057 110.1 399.357C110.1 401.657 108.2 403.457 106 403.457ZM110.6 396.057C109.9 396.057 109.3 395.557 109.3 394.757C109.3 393.957 109.8 393.457 110.6 393.457C111.3 393.457 111.9 394.057 111.9 394.757C111.9 395.457 111.3 396.057 110.6 396.057Z" fill="black"/>
</g>
</g>
<g clip-path="url(#clip36_11518_3287)">
<g clip-path="url(#clip37_11518_3287)">
<path d="M31.5 418.357H34V415.357H30.6C27.8 415.357 27 417.057 27 419.557V421.357H25V424.357H27V433.357H30V424.357H33.3L33.9 421.357H30V419.857C30 419.057 30.3 418.357 31.5 418.357Z" fill="black"/>
</g>
</g>
<g opacity="0.6" clip-path="url(#clip38_11518_3287)">
<g clip-path="url(#clip39_11518_3287)">
<path d="M66.5 418.357H69V415.357H65.6C62.8 415.357 62 417.057 62 419.557V421.357H60V424.357H62V433.357H65V424.357H68.3L68.9 421.357H65V419.857C65 419.057 65.3 418.357 66.5 418.357Z" fill="black"/>
</g>
</g>
<g opacity="0.3" clip-path="url(#clip40_11518_3287)">
<g clip-path="url(#clip41_11518_3287)">
<path d="M104.5 418.357H107V415.357H103.6C100.8 415.357 100 417.057 100 419.557V421.357H98V424.357H100V433.357H103V424.357H106.3L106.9 421.357H103V419.857C103 419.057 103.3 418.357 104.5 418.357Z" fill="black"/>
</g>
</g>
<g clip-path="url(#clip42_11518_3287)">
<g clip-path="url(#clip43_11518_3287)">
<path d="M33.3467 444.511C34.9467 444.013 36.12 444.81 36.76 445.607C37.2933 445.408 37.9333 445.209 38.5733 445.009C38.5733 445.806 38.04 446.404 37.72 446.603C38.4667 446.802 39 446.205 39 446.205C38.8933 447.101 38.04 447.898 37.5067 448.097C37.2933 454.371 34.52 458.455 28.0133 458.355C27.48 458.355 28.12 458.355 27.5867 458.355C27.2667 458.355 23.64 457.957 23 456.562C25.1333 456.762 26.6267 456.164 27.3733 455.467C26.52 455.168 24.8133 455.069 24.6 452.678C24.92 452.877 25.1333 452.977 25.7733 452.877C24.6 452.081 23.32 451.384 23.4267 449.392C23.7467 449.69 24.3867 449.89 24.7067 449.79C24.0667 449.591 22.7867 446.703 23.8533 445.209C25.56 446.902 27.3733 448.595 30.5733 448.694C30.7867 446.603 31.64 445.209 33.3467 444.511Z" fill="black"/>
</g>
</g>
<g opacity="0.6" clip-path="url(#clip44_11518_3287)">
<g clip-path="url(#clip45_11518_3287)">
<path d="M68.3467 444.511C69.9467 444.013 71.12 444.81 71.76 445.607C72.2933 445.408 72.9333 445.209 73.5733 445.009C73.5733 445.806 73.04 446.404 72.72 446.603C73.4667 446.802 74 446.205 74 446.205C73.8933 447.101 73.04 447.898 72.5067 448.097C72.2933 454.371 69.52 458.455 63.0133 458.355C62.48 458.355 63.12 458.355 62.5867 458.355C62.2667 458.355 58.64 457.957 58 456.562C60.1333 456.762 61.6267 456.164 62.3733 455.467C61.52 455.168 59.8133 455.069 59.6 452.678C59.92 452.877 60.1333 452.977 60.7733 452.877C59.6 452.081 58.32 451.384 58.4267 449.392C58.7467 449.69 59.3867 449.89 59.7067 449.79C59.0667 449.591 57.7867 446.703 58.8533 445.209C60.56 446.902 62.3733 448.595 65.5733 448.694C65.7867 446.603 66.64 445.209 68.3467 444.511Z" fill="black"/>
</g>
</g>
<g opacity="0.3" clip-path="url(#clip46_11518_3287)">
<g clip-path="url(#clip47_11518_3287)">
<path d="M106.347 444.511C107.947 444.013 109.12 444.81 109.76 445.607C110.293 445.408 110.933 445.209 111.573 445.009C111.573 445.806 111.04 446.404 110.72 446.603C111.467 446.802 112 446.205 112 446.205C111.893 447.101 111.04 447.898 110.507 448.097C110.293 454.371 107.52 458.455 101.013 458.355C100.48 458.355 101.12 458.355 100.587 458.355C100.267 458.355 96.64 457.957 96 456.562C98.1333 456.762 99.6267 456.164 100.373 455.467C99.52 455.168 97.8133 455.069 97.6 452.678C97.92 452.877 98.1333 452.977 98.7733 452.877C97.6 452.081 96.32 451.384 96.4267 449.392C96.7467 449.69 97.3867 449.89 97.7067 449.79C97.0667 449.591 95.7867 446.703 96.8533 445.209C98.56 446.902 100.373 448.595 103.573 448.694C103.787 446.603 104.64 445.209 106.347 444.511Z" fill="black"/>
</g>
</g>
<rect x="0.5" y="0.856934" width="137" height="473" rx="4.5" stroke="#7B61FF" stroke-dasharray="10 5"/>
<defs>
<clipPath id="clip0_11518_3287">
<rect width="15" height="12" fill="white" transform="translate(20 19.3569)"/>
</clipPath>
<clipPath id="clip1_11518_3287">
<rect width="4" height="12" fill="white" transform="translate(25 50.3569)"/>
</clipPath>
<clipPath id="clip2_11518_3287">
<rect width="15" height="12" fill="white" transform="translate(20 81.3569)"/>
</clipPath>
<clipPath id="clip3_11518_3287">
<rect width="16" height="16" fill="white" transform="translate(19 112.357)"/>
</clipPath>
<clipPath id="clip4_11518_3287">
<rect width="16" height="16" fill="white" transform="translate(19 182.357)"/>
</clipPath>
<clipPath id="clip5_11518_3287">
<rect width="16" height="14" fill="white" transform="translate(19 217.357)"/>
</clipPath>
<clipPath id="clip6_11518_3287">
<rect width="10" height="12" fill="white" transform="translate(22 250.357)"/>
</clipPath>
<clipPath id="clip7_11518_3287">
<rect width="11" height="11" fill="white" transform="translate(22 281.357)"/>
</clipPath>
<clipPath id="clip8_11518_3287">
<rect width="11" height="10" fill="white" transform="translate(22 338.357)"/>
</clipPath>
<clipPath id="clip9_11518_3287">
<rect width="15" height="12" fill="white" transform="translate(58 19.3569)"/>
</clipPath>
<clipPath id="clip10_11518_3287">
<rect width="15" height="12" fill="white" transform="translate(96 19.3569)"/>
</clipPath>
<clipPath id="clip11_11518_3287">
<rect width="4" height="12" fill="white" transform="translate(63 50.3569)"/>
</clipPath>
<clipPath id="clip12_11518_3287">
<rect width="4" height="12" fill="white" transform="translate(101 50.3569)"/>
</clipPath>
<clipPath id="clip13_11518_3287">
<rect width="15" height="12" fill="white" transform="translate(58 81.3569)"/>
</clipPath>
<clipPath id="clip14_11518_3287">
<rect width="15" height="12" fill="white" transform="translate(96 81.3569)"/>
</clipPath>
<clipPath id="clip15_11518_3287">
<rect width="16" height="16" fill="white" transform="translate(57 112.357)"/>
</clipPath>
<clipPath id="clip16_11518_3287">
<rect width="16" height="16" fill="white" transform="translate(95 112.357)"/>
</clipPath>
<clipPath id="clip17_11518_3287">
<rect width="16" height="16" fill="white" transform="translate(57 182.357)"/>
</clipPath>
<clipPath id="clip18_11518_3287">
<rect width="16" height="16" fill="white" transform="translate(95 182.357)"/>
</clipPath>
<clipPath id="clip19_11518_3287">
<rect width="16" height="14" fill="white" transform="translate(57 217.357)"/>
</clipPath>
<clipPath id="clip20_11518_3287">
<rect width="16" height="14" fill="white" transform="translate(95 217.357)"/>
</clipPath>
<clipPath id="clip21_11518_3287">
<rect width="10" height="12" fill="white" transform="translate(60 250.357)"/>
</clipPath>
<clipPath id="clip22_11518_3287">
<rect width="10" height="12" fill="white" transform="translate(98 250.357)"/>
</clipPath>
<clipPath id="clip23_11518_3287">
<rect width="11" height="11" fill="white" transform="translate(60 281.357)"/>
</clipPath>
<clipPath id="clip24_11518_3287">
<rect width="11" height="11" fill="white" transform="translate(98 281.357)"/>
</clipPath>
<clipPath id="clip25_11518_3287">
<rect width="11" height="10" fill="white" transform="translate(60 338.357)"/>
</clipPath>
<clipPath id="clip26_11518_3287">
<rect width="11" height="10" fill="white" transform="translate(98 338.357)"/>
</clipPath>
<clipPath id="clip27_11518_3287">
<rect width="11" height="10" fill="white" transform="translate(33 372.357) rotate(-180)"/>
</clipPath>
<clipPath id="clip28_11518_3287">
<rect width="11" height="10" fill="white" transform="translate(71 372.357) rotate(-180)"/>
</clipPath>
<clipPath id="clip29_11518_3287">
<rect width="11" height="10" fill="white" transform="translate(109 372.357) rotate(-180)"/>
</clipPath>
<clipPath id="clip30_11518_3287">
<rect width="16" height="16" fill="white" transform="translate(38 407.357) rotate(-180)"/>
</clipPath>
<clipPath id="clip31_11518_3287">
<rect width="16" height="16" fill="white" transform="translate(22 391.357)"/>
</clipPath>
<clipPath id="clip32_11518_3287">
<rect width="16" height="16" fill="white" transform="translate(76 407.357) rotate(-180)"/>
</clipPath>
<clipPath id="clip33_11518_3287">
<rect width="16" height="16" fill="white" transform="translate(60 391.357)"/>
</clipPath>
<clipPath id="clip34_11518_3287">
<rect width="16" height="16" fill="white" transform="translate(114 407.357) rotate(-180)"/>
</clipPath>
<clipPath id="clip35_11518_3287">
<rect width="16" height="16" fill="white" transform="translate(98 391.357)"/>
</clipPath>
<clipPath id="clip36_11518_3287">
<rect width="9" height="18" fill="white" transform="translate(34 433.357) rotate(-180)"/>
</clipPath>
<clipPath id="clip37_11518_3287">
<rect width="9" height="18" fill="white" transform="translate(25 415.357)"/>
</clipPath>
<clipPath id="clip38_11518_3287">
<rect width="9" height="18" fill="white" transform="translate(69 433.357) rotate(-180)"/>
</clipPath>
<clipPath id="clip39_11518_3287">
<rect width="9" height="18" fill="white" transform="translate(60 415.357)"/>
</clipPath>
<clipPath id="clip40_11518_3287">
<rect width="9" height="18" fill="white" transform="translate(107 433.357) rotate(-180)"/>
</clipPath>
<clipPath id="clip41_11518_3287">
<rect width="9" height="18" fill="white" transform="translate(98 415.357)"/>
</clipPath>
<clipPath id="clip42_11518_3287">
<rect width="16" height="14" fill="white" transform="translate(39 458.357) rotate(-180)"/>
</clipPath>
<clipPath id="clip43_11518_3287">
<rect width="16" height="14" fill="white" transform="translate(23 444.357)"/>
</clipPath>
<clipPath id="clip44_11518_3287">
<rect width="16" height="14" fill="white" transform="translate(74 458.357) rotate(-180)"/>
</clipPath>
<clipPath id="clip45_11518_3287">
<rect width="16" height="14" fill="white" transform="translate(58 444.357)"/>
</clipPath>
<clipPath id="clip46_11518_3287">
<rect width="16" height="14" fill="white" transform="translate(112 458.357) rotate(-180)"/>
</clipPath>
<clipPath id="clip47_11518_3287">
<rect width="16" height="14" fill="white" transform="translate(96 444.357)"/>
</clipPath>
</defs>
</svg>
