<svg width="200" height="1025" viewBox="0 0 200 1025" fill="none" xmlns="http://www.w3.org/2000/svg">
<path d="M136.131 105.639V93.003C136.131 91.694 137.176 90.633 138.466 90.633L146.792 92.214V84.02C146.792 81.665 145.084 80.589 142.59 79.755L119.403 73.175C121.019 74.566 121.292 75.215 121.292 77.571V122.78C121.292 125.136 120.842 126.846 119.325 127.99L142.59 120.925C144.991 120.092 146.792 116.709 146.792 114.353V106.44L138.466 108.007C137.176 108.009 136.131 106.947 136.131 105.639Z" fill="#363636"/>
<path d="M147.129 93.979L139.531 92.535C138.523 92.535 137.707 93.364 137.707 94.386V104.254C137.707 105.277 138.523 106.106 139.531 106.106L147.129 104.675C148.283 104.256 148.953 103.846 148.953 102.823V95.83C148.953 94.808 148.187 94.323 147.129 93.979Z" fill="#363636"/>
<path d="M119.17 77.483C119.17 72.403 114.938 73.024 114.938 73.024C114.938 73.024 57.8324 77.738 54.8384 78.145C51.8444 78.552 52.0014 82.532 52.0014 82.532C52.0014 82.532 52.0004 115.069 52.0004 118.812C52.0004 122.555 54.5994 122.565 54.5994 122.565L71.0764 123.968L79.2124 112.3C79.2124 112.3 80.3214 110.472 81.7174 110.472C83.1144 110.472 84.1494 112.333 84.1494 112.333L93.2104 125.854C93.2104 125.854 112.105 127.763 115.731 127.763C119.357 127.762 119.17 122.739 119.17 122.739C119.17 122.739 119.17 82.563 119.17 77.483ZM64.9824 110.192C61.2844 110.192 58.2864 105.591 58.2864 99.917C58.2864 94.243 61.2844 89.642 64.9824 89.642C68.6804 89.642 71.6784 94.243 71.6784 99.917C71.6784 105.591 68.6804 110.192 64.9824 110.192ZM101.14 111.618C96.4784 111.618 92.6994 106.379 92.6994 99.917C92.6994 93.454 96.4794 88.215 101.14 88.215C105.802 88.215 109.582 93.454 109.582 99.917C109.582 106.379 105.802 111.618 101.14 111.618Z" fill="#363636"/>
<path d="M139.821 232.011H60.3301C58.5691 232.011 57.1421 233.438 57.1421 235.199V281.612C57.1421 283.375 58.5691 284.801 60.3301 284.801H139.822C141.584 284.801 143.011 283.374 143.011 281.612V235.199C143.011 233.438 141.583 232.011 139.821 232.011ZM65.3921 265.236H65.1661C63.4041 265.236 61.9771 263.807 61.9771 262.047V254.764C61.9771 253.003 63.4041 251.576 65.1661 251.576H65.3921V265.236ZM126.623 280.408H70.3411V236.402H126.623V280.408ZM135.4 262.552C133.111 262.552 131.254 260.697 131.254 258.405C131.254 256.113 133.11 254.258 135.4 254.258C137.691 254.258 139.548 256.113 139.548 258.405C139.548 260.697 137.691 262.552 135.4 262.552Z" fill="#363636"/>
<path d="M111.654 228H88.4971V230.758H111.654V228Z" fill="#363636"/>
<path d="M103.608 292.861V289.888H111.654V287.13H88.4981V289.888H96.5431V325.134C94.4041 326.072 92.9081 328.206 92.9081 330.693V345H107.243V330.693C107.243 328.207 105.748 326.072 103.607 325.136V297.146H108.403L113.454 298.359V291.648L108.403 292.861H103.608Z" fill="#363636"/>
<path d="M117.349 387.49C117.349 386.754 116.771 386 116.038 386H73.053C72.32 386 71.672 386.754 71.672 387.49V391.012H117.348L117.349 387.49Z" fill="#363636"/>
<path d="M118.202 467.809H108.605V457.426H101.647V459.933H82.774C82.237 458.679 81.017 457.785 79.593 457.785H67.559C65.642 457.784 64 459.387 64 461.311V464.329C64 466.253 65.642 467.809 67.559 467.809H79.594C81.105 467.809 82.386 466.913 82.863 465.483H101.648V467.809H92.13C91.597 467.809 91.12 468.246 91.12 468.781V471.953C91.12 472.488 91.598 473.001 92.13 473.001H118.202C118.735 473.001 119.132 472.488 119.132 471.953V468.78C119.132 468.245 118.735 467.809 118.202 467.809Z" fill="#363636"/>
<path d="M124.666 398.39C123.805 395.453 121.099 393.34 117.895 393.34H71.148C67.25 393.34 64 396.449 64 400.361V447.261C64 451.173 67.25 454.382 71.148 454.382H117.895C121.793 454.382 125.021 451.173 125.021 447.261V436.915C131.087 432.711 135.022 425.704 135.022 417.751C135.021 409.672 130.89 402.57 124.666 398.39ZM76.238 448.151C72.979 448.151 70.337 445.501 70.337 442.23C70.337 438.96 72.979 436.308 76.238 436.308C79.497 436.308 82.14 438.96 82.14 442.23C82.14 445.501 79.497 448.151 76.238 448.151ZM82.199 415.546C82.199 416.332 81.564 416.968 80.781 416.968H71.841C71.058 416.968 70.423 416.331 70.423 415.546V401.386C70.423 400.6 71.058 399.963 71.841 399.963H80.78C81.563 399.963 82.198 400.6 82.198 401.386L82.199 415.546ZM111.762 437.858C100.686 437.858 91.705 428.848 91.705 417.735C91.705 406.622 100.685 397.611 111.762 397.611C122.839 397.611 131.82 406.621 131.82 417.735C131.82 428.849 122.839 437.858 111.762 437.858Z" fill="#363636"/>
<path d="M111.762 429.964C118.493 429.964 123.95 424.489 123.95 417.735C123.95 410.981 118.493 405.506 111.762 405.506C105.031 405.506 99.574 410.981 99.574 417.735C99.574 424.489 105.031 429.964 111.762 429.964Z" fill="#363636"/>
<path d="M95.562 419.171C96.3545 419.171 96.997 418.529 96.997 417.736C96.997 416.943 96.3545 416.301 95.562 416.301C94.7695 416.301 94.127 416.943 94.127 417.736C94.127 418.529 94.7695 419.171 95.562 419.171Z" fill="#363636"/>
<path d="M127.963 419.171C128.756 419.171 129.398 418.529 129.398 417.736C129.398 416.943 128.756 416.301 127.963 416.301C127.17 416.301 126.528 416.943 126.528 417.736C126.528 418.529 127.17 419.171 127.963 419.171Z" fill="#363636"/>
<path d="M103.109 405.429C103.902 405.429 104.544 404.787 104.544 403.994C104.544 403.201 103.902 402.559 103.109 402.559C102.316 402.559 101.674 403.201 101.674 403.994C101.674 404.787 102.316 405.429 103.109 405.429Z" fill="#363636"/>
<path d="M120.415 432.912C121.205 432.912 121.845 432.269 121.845 431.476C121.845 430.683 121.205 430.04 120.415 430.04C119.625 430.04 118.985 430.683 118.985 431.476C118.985 432.269 119.625 432.912 120.415 432.912Z" fill="#363636"/>
<path d="M119.697 405C120.49 405 121.132 404.358 121.132 403.565C121.132 402.772 120.49 402.13 119.697 402.13C118.904 402.13 118.262 402.772 118.262 403.565C118.262 404.358 118.904 405 119.697 405Z" fill="#363636"/>
<path d="M103.828 433.341C104.621 433.341 105.263 432.699 105.263 431.906C105.263 431.113 104.621 430.471 103.828 430.471C103.035 430.471 102.393 431.113 102.393 431.906C102.393 432.699 103.035 433.341 103.828 433.341Z" fill="#363636"/>
<path d="M144.967 566.074C145.719 567.515 146.176 569.154 146.176 570.892V591.994C146.176 596.61 143.084 600.521 138.93 601.894C137.605 605.881 135.152 609.748 130.879 612.326C122.203 617.557 99.755 617.163 99.681 617.163C99.603 617.163 77.168 617.558 68.492 612.326C64.276 609.781 61.784 605.979 60.45 602.047C56.032 600.838 52.694 596.796 52.694 591.994V570.893C52.694 569.205 53.121 567.611 53.833 566.2C50.17 567.109 46 568.918 46 572.434C46 578.677 46 598.121 46 602.417C46 612.668 57.839 626.85 99.657 626.85C141.477 626.85 153.314 612.668 153.314 602.417C153.314 598.121 153.314 578.677 153.314 572.434C153.313 568.75 148.738 566.94 144.967 566.074Z" fill="#363636"/>
<path d="M66.561 600.459H132.084C137.648 600.459 142.158 595.946 142.158 590.382V571.935C142.158 566.372 137.648 561.86 132.084 561.86H66.561C60.997 561.86 56.486 566.371 56.486 571.935V590.382C56.486 595.946 60.997 600.459 66.561 600.459ZM129.695 571.468C130.562 571.468 131.264 572.171 131.264 573.038C131.264 573.904 130.562 574.607 129.695 574.607C128.828 574.607 128.127 573.904 128.127 573.038C128.127 572.17 128.828 571.468 129.695 571.468ZM129.695 575.507C130.562 575.507 131.264 576.21 131.264 577.075C131.264 577.942 130.562 578.644 129.695 578.644C128.828 578.644 128.127 577.942 128.127 577.075C128.127 576.21 128.828 575.507 129.695 575.507ZM129.695 579.546C130.562 579.546 131.264 580.248 131.264 581.115C131.264 581.981 130.562 582.684 129.695 582.684C128.828 582.684 128.127 581.981 128.127 581.115C128.127 580.248 128.828 579.546 129.695 579.546ZM129.695 583.373C130.562 583.373 131.264 584.077 131.264 584.942C131.264 585.809 130.562 586.51 129.695 586.51C128.828 586.51 128.127 585.809 128.127 584.942C128.127 584.076 128.828 583.373 129.695 583.373ZM129.695 587.412C130.562 587.412 131.264 588.114 131.264 588.981C131.264 589.846 130.562 590.549 129.695 590.549C128.828 590.549 128.127 589.845 128.127 588.981C128.127 588.114 128.828 587.412 129.695 587.412ZM125.656 571.468C126.523 571.468 127.224 572.171 127.224 573.038C127.224 573.904 126.523 574.607 125.656 574.607C124.791 574.607 124.088 573.904 124.088 573.038C124.088 572.17 124.791 571.468 125.656 571.468ZM125.656 587.412C126.523 587.412 127.224 588.114 127.224 588.981C127.224 589.846 126.523 590.549 125.656 590.549C124.791 590.549 124.088 589.845 124.088 588.981C124.088 588.114 124.791 587.412 125.656 587.412ZM121.619 571.468C122.484 571.468 123.187 572.171 123.187 573.038C123.187 573.904 122.484 574.607 121.619 574.607C120.752 574.607 120.05 573.904 120.05 573.038C120.05 572.17 120.752 571.468 121.619 571.468ZM121.619 575.507C122.484 575.507 123.187 576.21 123.187 577.075C123.187 577.942 122.484 578.644 121.619 578.644C120.752 578.644 120.05 577.942 120.05 577.075C120.05 576.21 120.752 575.507 121.619 575.507ZM121.619 579.546C122.484 579.546 123.187 580.248 123.187 581.115C123.187 581.981 122.484 582.684 121.619 582.684C120.752 582.684 120.05 581.981 120.05 581.115C120.05 580.248 120.752 579.546 121.619 579.546ZM121.619 583.373C122.484 583.373 123.187 584.077 123.187 584.942C123.187 585.809 122.484 586.51 121.619 586.51C120.752 586.51 120.05 585.809 120.05 584.942C120.05 584.076 120.752 583.373 121.619 583.373ZM121.619 587.412C122.484 587.412 123.187 588.114 123.187 588.981C123.187 589.846 122.484 590.549 121.619 590.549C120.752 590.549 120.05 589.845 120.05 588.981C120.05 588.114 120.752 587.412 121.619 587.412ZM113.965 571.468C114.832 571.468 115.533 572.171 115.533 573.038C115.533 573.904 114.832 574.607 113.965 574.607C113.098 574.607 112.397 573.904 112.397 573.038C112.396 572.17 113.1 571.468 113.965 571.468ZM113.965 579.546C114.832 579.546 115.533 580.248 115.533 581.115C115.533 581.981 114.832 582.684 113.965 582.684C113.098 582.684 112.397 581.981 112.397 581.115C112.396 580.248 113.1 579.546 113.965 579.546ZM113.965 583.427C114.832 583.427 115.533 584.128 115.533 584.995C115.533 585.86 114.832 586.564 113.965 586.564C113.098 586.564 112.397 585.86 112.397 584.995C112.396 584.128 113.1 583.427 113.965 583.427ZM113.965 587.412C114.832 587.412 115.533 588.114 115.533 588.981C115.533 589.846 114.832 590.549 113.965 590.549C113.098 590.549 112.397 589.845 112.397 588.981C112.396 588.114 113.1 587.412 113.965 587.412ZM109.926 571.468C110.793 571.468 111.496 572.171 111.496 573.038C111.496 573.904 110.793 574.607 109.926 574.607C109.061 574.607 108.357 573.904 108.357 573.038C108.356 572.17 109.061 571.468 109.926 571.468ZM109.926 579.546C110.793 579.546 111.496 580.248 111.496 581.115C111.496 581.981 110.793 582.684 109.926 582.684C109.061 582.684 108.357 581.981 108.357 581.115C108.356 580.248 109.061 579.546 109.926 579.546ZM109.926 587.412C110.793 587.412 111.496 588.114 111.496 588.981C111.496 589.846 110.793 590.549 109.926 590.549C109.061 590.549 108.357 589.845 108.357 588.981C108.356 588.114 109.061 587.412 109.926 587.412ZM105.888 571.468C106.753 571.468 107.457 572.171 107.457 573.038C107.457 573.904 106.753 574.607 105.888 574.607C105.021 574.607 104.32 573.904 104.32 573.038C104.319 572.17 105.021 571.468 105.888 571.468ZM105.888 575.507C106.753 575.507 107.457 576.21 107.457 577.075C107.457 577.942 106.753 578.644 105.888 578.644C105.021 578.644 104.32 577.942 104.32 577.075C104.319 576.21 105.021 575.507 105.888 575.507ZM105.888 579.546C106.753 579.546 107.457 580.248 107.457 581.115C107.457 581.981 106.753 582.684 105.888 582.684C105.021 582.684 104.32 581.981 104.32 581.115C104.319 580.248 105.021 579.546 105.888 579.546ZM105.888 587.412C106.753 587.412 107.457 588.114 107.457 588.981C107.457 589.846 106.753 590.549 105.888 590.549C105.021 590.549 104.32 589.845 104.32 588.981C104.319 588.114 105.021 587.412 105.888 587.412ZM97.598 571.468C98.465 571.468 99.167 572.171 99.167 573.038C99.167 573.904 98.465 574.607 97.598 574.607C96.731 574.607 96.03 573.904 96.03 573.038C96.029 572.17 96.731 571.468 97.598 571.468ZM97.598 575.507C98.465 575.507 99.167 576.21 99.167 577.075C99.167 577.942 98.465 578.644 97.598 578.644C96.731 578.644 96.03 577.942 96.03 577.075C96.029 576.21 96.731 575.507 97.598 575.507ZM97.598 579.546C98.465 579.546 99.167 580.248 99.167 581.115C99.167 581.981 98.465 582.684 97.598 582.684C96.731 582.684 96.03 581.981 96.03 581.115C96.029 580.248 96.731 579.546 97.598 579.546ZM97.598 583.427C98.465 583.427 99.167 584.128 99.167 584.995C99.167 585.86 98.465 586.564 97.598 586.564C96.731 586.564 96.03 585.86 96.03 584.995C96.029 584.128 96.731 583.427 97.598 583.427ZM97.598 587.412C98.465 587.412 99.167 588.114 99.167 588.981C99.167 589.846 98.465 590.549 97.598 590.549C96.731 590.549 96.03 589.845 96.03 588.981C96.029 588.114 96.731 587.412 97.598 587.412ZM93.559 575.507C94.426 575.507 95.127 576.21 95.127 577.075C95.127 577.942 94.426 578.644 93.559 578.644C92.692 578.644 91.99 577.942 91.99 577.075C91.99 576.21 92.691 575.507 93.559 575.507ZM85.057 575.295C85.922 575.295 86.626 575.998 86.626 576.863C86.626 577.73 85.922 578.432 85.057 578.432C84.19 578.432 83.486 577.729 83.486 576.863C83.486 575.998 84.189 575.295 85.057 575.295ZM85.057 579.333C85.922 579.333 86.626 580.036 86.626 580.903C86.626 581.769 85.922 582.473 85.057 582.473C84.19 582.473 83.486 581.769 83.486 580.903C83.486 580.036 84.189 579.333 85.057 579.333ZM81.018 571.255C81.883 571.255 82.586 571.958 82.586 572.825C82.586 573.691 81.882 574.393 81.018 574.393C80.151 574.393 79.449 573.69 79.449 572.825C79.449 571.958 80.15 571.255 81.018 571.255ZM81.018 575.295C81.883 575.295 82.586 575.998 82.586 576.863C82.586 577.73 81.882 578.432 81.018 578.432C80.151 578.432 79.449 577.729 79.449 576.863C79.449 575.998 80.15 575.295 81.018 575.295ZM81.018 579.333C81.883 579.333 82.586 580.036 82.586 580.903C82.586 581.769 81.882 582.473 81.018 582.473C80.151 582.473 79.449 581.769 79.449 580.903C79.449 580.036 80.15 579.333 81.018 579.333ZM81.018 583.373C81.883 583.373 82.586 584.077 82.586 584.942C82.586 585.809 81.882 586.51 81.018 586.51C80.151 586.51 79.449 585.809 79.449 584.942C79.449 584.076 80.15 583.373 81.018 583.373ZM76.764 575.295C77.631 575.295 78.333 575.998 78.333 576.863C78.333 577.73 77.631 578.432 76.764 578.432C75.897 578.432 75.196 577.729 75.196 576.863C75.196 575.998 75.897 575.295 76.764 575.295ZM76.764 579.333C77.631 579.333 78.333 580.036 78.333 580.903C78.333 581.769 77.631 582.473 76.764 582.473C75.897 582.473 75.196 581.769 75.196 580.903C75.196 580.036 75.897 579.333 76.764 579.333ZM76.764 583.373C77.631 583.373 78.333 584.077 78.333 584.942C78.333 585.809 77.631 586.51 76.764 586.51C75.897 586.51 75.196 585.809 75.196 584.942C75.196 584.076 75.897 583.373 76.764 583.373ZM76.764 587.412C77.631 587.412 78.333 588.114 78.333 588.981C78.333 589.846 77.631 590.549 76.764 590.549C75.897 590.549 75.196 589.845 75.196 588.981C75.196 588.114 75.897 587.412 76.764 587.412ZM72.3 571.255C73.167 571.255 73.871 571.958 73.871 572.825C73.871 573.691 73.167 574.393 72.3 574.393C71.435 574.393 70.731 573.69 70.731 572.825C70.731 571.958 71.435 571.255 72.3 571.255ZM72.3 575.295C73.167 575.295 73.871 575.998 73.871 576.863C73.871 577.73 73.167 578.432 72.3 578.432C71.435 578.432 70.731 577.729 70.731 576.863C70.731 575.998 71.435 575.295 72.3 575.295ZM72.3 579.333C73.167 579.333 73.871 580.036 73.871 580.903C73.871 581.769 73.167 582.473 72.3 582.473C71.435 582.473 70.731 581.769 70.731 580.903C70.731 580.036 71.435 579.333 72.3 579.333ZM72.3 583.373C73.167 583.373 73.871 584.077 73.871 584.942C73.871 585.809 73.167 586.51 72.3 586.51C71.435 586.51 70.731 585.809 70.731 584.942C70.731 584.076 71.435 583.373 72.3 583.373ZM68.263 575.295C69.128 575.295 69.832 575.998 69.832 576.863C69.832 577.73 69.128 578.432 68.263 578.432C67.396 578.432 66.694 577.729 66.694 576.863C66.694 575.998 67.396 575.295 68.263 575.295ZM68.263 579.333C69.128 579.333 69.832 580.036 69.832 580.903C69.832 581.769 69.128 582.473 68.263 582.473C67.396 582.473 66.694 581.769 66.694 580.903C66.694 580.036 67.396 579.333 68.263 579.333Z" fill="#363636"/>
<path d="M126.494 743.197H124.979V738.557C124.979 733.505 120.892 729.371 115.897 729.371H81.082C76.086 729.372 72 733.505 72 738.557V781.425C72 786.477 76.087 790.61 81.083 790.61H115.898C120.893 790.61 124.98 786.477 124.98 781.425V778.01H126.495C126.91 778.01 127.252 777.666 127.252 777.246V763.467C127.252 763.046 126.91 762.701 126.495 762.701H124.98V753.913H126.495C127.327 753.913 128.009 753.225 128.009 752.382V744.728C128.008 743.886 127.326 743.197 126.494 743.197ZM106.082 740.088C109.008 740.088 111.381 742.486 111.381 745.446C111.381 748.406 109.008 750.804 106.082 750.804C103.156 750.804 100.784 748.406 100.784 745.446C100.784 742.486 103.156 740.088 106.082 740.088ZM90.945 740.088C93.87 740.088 96.243 742.486 96.243 745.446C96.243 748.406 93.87 750.804 90.945 750.804C88.019 750.804 85.647 748.406 85.647 745.446C85.647 742.486 88.019 740.088 90.945 740.088ZM77.297 760.397C77.297 757.438 79.668 755.039 82.595 755.039C85.521 755.039 87.893 757.438 87.893 760.397C87.893 763.356 85.52 765.755 82.595 765.755C79.668 765.756 77.297 763.356 77.297 760.397ZM90.945 779.894C88.019 779.894 85.647 777.496 85.647 774.536C85.647 771.576 88.019 769.178 90.945 769.178C93.87 769.178 96.243 771.576 96.243 774.536C96.243 777.496 93.87 779.894 90.945 779.894ZM92.435 759.991C92.435 756.609 95.146 753.867 98.49 753.867C101.834 753.867 104.545 756.609 104.545 759.991C104.545 763.373 101.834 766.115 98.49 766.115C95.146 766.114 92.435 763.373 92.435 759.991ZM106.082 779.894C103.156 779.894 100.784 777.496 100.784 774.536C100.784 771.576 103.156 769.178 106.082 769.178C109.008 769.178 111.381 771.576 111.381 774.536C111.381 777.496 109.008 779.894 106.082 779.894ZM114.384 765.756C111.457 765.756 109.086 763.357 109.086 760.398C109.086 757.439 111.457 755.04 114.384 755.04C117.31 755.04 119.682 757.439 119.682 760.398C119.682 763.356 117.31 765.756 114.384 765.756Z" fill="#363636"/>
<path d="M81.646 726.31H115.333C116.176 726.31 116.765 725.629 116.639 724.796L115.023 714.028C115.023 714.028 115.023 714.027 115.021 714.026C114.771 712.362 113.189 711 111.506 711H85.474C83.788 711 82.206 712.362 81.957 714.028L80.342 724.795C80.217 725.628 80.803 726.31 81.646 726.31Z" fill="#363636"/>
<path d="M115.333 793.671H81.646C80.803 793.671 80.217 794.354 80.342 795.187L81.957 805.954C82.207 807.62 83.789 808.982 85.473 808.982H111.505C113.189 808.982 114.771 807.62 115.022 805.956V805.954L116.637 795.187C116.765 794.354 116.176 793.671 115.333 793.671Z" fill="#363636"/>
<path d="M46.0523 890.258C40.5074 890.745 35.8384 891.851 34.5753 892.93C33.8526 893.547 33.8526 893.547 34.3429 894.087C34.9874 894.806 38.0563 895.732 41.5905 896.323C45.5885 896.991 54.1003 897.016 55.3136 896.374C56.5255 895.706 56.9376 894.96 56.9376 893.393C56.9376 891.774 56.3185 890.977 54.7198 890.54C53.274 890.154 48.9415 890 46.0523 890.258Z" fill="#363636"/>
<path d="M59.7745 890.488C59.6451 890.771 59.5162 892.596 59.5162 894.6C59.5162 898.661 59.6715 898.378 57.3243 898.533L56.2935 898.61L56.0352 903.699L54.8487 903.982C52.2696 904.65 50.8497 906.577 51.0572 909.276C51.1851 911.203 52.088 912.617 53.6358 913.363C54.7447 913.876 55.1055 913.901 64.8819 913.901C70.4268 913.901 75.0191 913.98 75.0704 914.082C75.1212 914.21 73.961 923.489 72.4908 934.721C71.046 945.951 69.8077 955.718 69.7823 956.387C69.731 958.004 70.6085 959.008 72.13 959.008C73.3673 959.008 74.1417 958.366 74.4513 957.106C74.5807 956.593 75.9469 946.773 77.4694 935.285C78.9914 923.822 80.3322 914.416 80.4098 914.416C80.5128 914.416 81.4928 915.829 82.6022 917.552C85.5421 922.178 85.0011 921.869 90.2375 921.869H94.5959V927.499L89.4631 927.576C84.7429 927.653 84.2531 927.703 83.5818 928.191C82.009 929.348 81.9568 929.606 81.9568 939.168C81.9568 948.702 81.9832 948.96 83.4793 950.217L84.3304 950.913H115.696L116.546 950.217C118.042 948.96 118.067 948.702 118.067 939.168C118.067 929.606 118.016 929.348 116.444 928.191C115.773 927.703 115.283 927.653 110.562 927.576L105.43 927.499V921.869H109.789C115.024 921.869 114.483 922.178 117.423 917.552C118.534 915.829 119.513 914.416 119.617 914.416C119.693 914.416 121.036 923.822 122.556 935.285C124.079 946.773 125.446 956.593 125.575 957.106C125.884 958.366 126.657 959.008 127.896 959.008C129.418 959.008 130.295 958.004 130.243 956.387C130.217 955.718 128.979 945.951 127.534 934.721C126.065 923.489 124.903 914.21 124.956 914.082C125.006 913.98 129.597 913.901 135.145 913.901C144.921 913.901 145.281 913.876 146.389 913.363C147.937 912.617 148.839 911.203 148.968 909.276C149.175 906.577 147.757 904.65 145.177 903.982L143.99 903.699L143.734 898.61L142.702 898.533C140.355 898.378 140.508 898.661 140.508 894.6C140.508 892.596 140.38 890.771 140.252 890.488C140.045 890.128 139.709 890 138.884 890C138.265 890 137.646 890.128 137.464 890.309C137.258 890.514 137.155 891.774 137.155 894.241C137.155 896.708 137.052 897.968 136.845 898.173C136.666 898.353 135.944 898.481 135.196 898.481C133.57 898.481 133.544 898.533 133.544 901.591V903.878H66.4806V901.591C66.4806 898.533 66.4557 898.481 64.8307 898.481C64.0822 898.481 63.3605 898.353 63.1803 898.173C62.9728 897.968 62.8702 896.708 62.8702 894.241C62.8702 891.774 62.7672 890.514 62.5606 890.309C62.3799 890.128 61.7603 890 61.1417 890C60.317 890 59.9815 890.128 59.7745 890.488ZM102.617 930.608C105.506 931.507 108.009 934.001 108.783 936.776C109.222 938.319 109.093 940.992 108.499 942.56C107.803 944.435 105.814 946.569 103.934 947.495C102.644 948.137 102.18 948.214 100.013 948.214C97.8463 948.214 97.3819 948.137 96.0924 947.495C94.2081 946.569 92.2233 944.435 91.5265 942.56C90.9337 940.992 90.8038 938.319 91.2428 936.776C91.9908 934.053 94.4923 931.507 97.3043 930.608C99.3165 929.966 100.605 929.966 102.617 930.608Z" fill="#363636"/>
<path d="M97.794 934.438C95.7574 935.363 94.2872 938.087 94.7252 940.168C95.4991 943.845 99.5484 945.721 102.721 943.87C104.706 942.712 105.712 940.323 105.172 938.087C104.604 935.696 102.438 933.949 100.013 933.949C99.3673 933.949 98.3873 934.181 97.794 934.438Z" fill="#363636"/>
<path d="M70.0919 890.154C66.1715 890.822 65.5787 891.285 65.5787 893.598C65.5787 895.423 66.0426 896.014 67.8468 896.554C69.3966 897.016 75.0192 897.068 78.3468 896.682C85.2076 895.86 89.6686 894.138 88.0455 892.93C86.7804 892.03 83.1432 891.054 78.9913 890.54C76.5157 890.232 70.9952 890 70.0919 890.154Z" fill="#363636"/>
<path d="M123.484 890.258C117.165 890.848 111.62 892.339 111.62 893.444C111.62 895.166 119.461 896.914 127.25 896.94C133.054 896.94 134.446 896.297 134.446 893.598C134.446 891.774 133.827 890.977 132.073 890.514C130.424 890.103 126.398 890 123.484 890.258Z" fill="#363636"/>
<path d="M146.776 890.283C144.996 890.514 143.758 891.054 143.346 891.774C142.959 892.545 143.036 894.678 143.5 895.346C144.428 896.657 145.152 896.811 150.568 896.811C154.23 896.811 156.37 896.682 158.435 896.323C161.969 895.732 165.038 894.806 165.683 894.087C166.173 893.547 166.173 893.547 165.45 892.93C164.109 891.799 159.492 890.745 153.534 890.258C150.053 889.975 149.046 889.975 146.776 890.283Z" fill="#363636"/>
<rect x="0.5" y="0.5" width="199" height="1024" rx="4.5" stroke="#7B61FF" stroke-dasharray="10 5"/>
</svg>
